<mxfile host="app.diagrams.net" modified="2020-11-30T16:59:39.573Z" agent="5.0 (Windows)" etag="NN_g9QTLTyY_9oJbDfbK" version="13.10.4" type="github">
  <diagram id="TgsOetUIMMD29B5rdHni" name="Page-1">
    <mxGraphModel dx="1038" dy="547" grid="1" gridSize="10" guides="1" tooltips="1" connect="1" arrows="1" fold="1" page="1" pageScale="1" pageWidth="1169" pageHeight="827" math="0" shadow="0">
      <root>
        <mxCell id="0" />
        <mxCell id="1" parent="0" />
        <mxCell id="y23m5HL0FmxXgGwVUjin-1" value="Training and Development" style="swimlane;html=1;childLayout=stackLayout;resizeParent=1;resizeParentMax=0;horizontal=1;startSize=20;horizontalStack=0;" vertex="1" parent="1">
          <mxGeometry x="10" y="10" width="1150" height="450" as="geometry" />
        </mxCell>
        <mxCell id="y23m5HL0FmxXgGwVUjin-2" value="DDHR" style="swimlane;html=1;startSize=20;horizontal=0;" vertex="1" parent="y23m5HL0FmxXgGwVUjin-1">
          <mxGeometry y="20" width="1150" height="190" as="geometry" />
        </mxCell>
        <mxCell id="y23m5HL0FmxXgGwVUjin-3" value="Head, Training" style="swimlane;html=1;startSize=20;horizontal=0;" vertex="1" parent="y23m5HL0FmxXgGwVUjin-1">
          <mxGeometry y="210" width="1150" height="120" as="geometry" />
        </mxCell>
        <mxCell id="y23m5HL0FmxXgGwVUjin-4" value="Lane 3" style="swimlane;html=1;startSize=20;horizontal=0;" vertex="1" parent="y23m5HL0FmxXgGwVUjin-1">
          <mxGeometry y="330" width="1150" height="120" as="geometry" />
        </mxCell>
      </root>
    </mxGraphModel>
  </diagram>
</mxfile>
